# xmcd
#
# Track frame offsets:
#	150
#	95775
#	122294
#	174324
#	196764
#
# Disc length: 3098 seconds
#
# Revision: 0
# Processed by: cddbd v1.5.2PL0 Copyright (c) Steve Scherf et al.
# Submitted via: audiograbber 1.83.01
#
DISCID=350c1805
DTITLE=Grateful Dead - 94-10-01 Boston Garden, Boston MA
DYEAR=1900
DGENRE=
TTITLE0=Space
TTITLE1=The Last Time
TTITLE2=Stella Blue
TTITLE3=One More Saturday Night
TTITLE4=Liberty
EXTD=
EXTT0=
EXTT1=
EXTT2=
EXTT3=
EXTT4=
PLAYORDER=
